<svg width="72" height="64" viewBox="0 0 72 64" fill="none" xmlns="http://www.w3.org/2000/svg">
<rect width="71.2864" height="64" rx="5" fill="#0025D9"/>
<g clip-path="url(#clip0_304_608)">
<path d="M35.6779 30.0255C36.482 30.0255 38.29 25.3098 38.7495 24.0744C38.8153 23.8971 38.9826 23.7756 39.1716 23.7748C41.4782 23.7573 42.5404 23.9146 44.8596 25.0426C45.0885 25.1541 45.1501 25.4571 45.0194 25.6752C44.0921 27.236 40.6708 33.1413 39.3772 37.4333C38.0694 42.4787 36.1132 51.732 35.9659 51.8793C35.9334 51.9118 35.8252 52 35.672 52C35.553 52 35.4781 51.9692 35.3882 51.8793C35.2408 51.732 33.2846 42.4787 31.9769 37.4333C30.6833 33.1421 27.262 27.236 26.3346 25.6752C26.2048 25.4563 26.2664 25.1533 26.4945 25.0426C28.8145 23.9138 29.8766 23.7565 32.1825 23.7748C32.3714 23.7764 32.5388 23.898 32.6045 24.0744C33.064 25.3098 34.8671 30.0255 35.6704 30.0255C35.6754 30.0255 35.6762 30.0255 35.6762 30.0255H35.6779Z" fill="white"/>
<path d="M45.1234 26.2529C45.1433 26.0989 45.3057 26.009 45.448 26.0722C46.6833 26.6183 49.3921 28.9399 44.3367 38.3048C41.3408 43.4384 39.6368 44.3824 39.3846 44.3541C38.8343 44.2925 44.2934 32.5294 45.1234 26.252V26.2529Z" fill="white"/>
<path d="M26.164 26.2529C26.144 26.0989 25.9817 26.009 25.8393 26.0722C24.604 26.6183 21.8952 28.9399 26.9506 38.3048C29.9465 43.4384 31.6505 44.3824 31.9027 44.3541C32.453 44.2925 26.9939 32.5294 26.164 26.252V26.2529Z" fill="white"/>
<path d="M43.9381 13.0339C43.6068 12.8674 43.1556 12.7275 42.8276 12.6543C41.8712 12.442 39.4588 12 35.6779 12C32.3348 12 29.5545 12.4645 28.4141 12.6868C27.7864 12.8091 27.2079 13.1254 26.7908 13.6091C26.596 13.8355 26.457 14.0386 26.457 14.2809V19.8407C26.457 20.3018 26.8566 20.8063 27.4185 21.0885C27.7498 21.255 28.201 21.3948 28.529 21.4681C29.4854 21.6803 31.8978 22.1224 35.6787 22.1224C39.0218 22.1224 41.8021 21.6579 42.9433 21.4356C43.571 21.3132 44.1495 20.9969 44.5666 20.5133C44.7614 20.2869 44.9004 20.0837 44.9004 19.8415V14.2817C44.9004 13.8205 44.5008 13.3161 43.9389 13.0339H43.9381ZM33.1589 18.0601C33.1589 18.498 32.801 18.8559 32.3631 18.8559H32.1783C31.7405 18.8559 31.3825 18.498 31.3825 18.0601V16.0623C31.3825 15.6244 31.7405 15.2665 32.1783 15.2665H32.3631C32.801 15.2665 33.1589 15.6244 33.1589 16.0623V18.0601ZM39.9499 18.0601C39.9499 18.498 39.592 18.8559 39.1541 18.8559H38.9693C38.5315 18.8559 38.1735 18.498 38.1735 18.0601V16.0623C38.1735 15.6244 38.5315 15.2665 38.9693 15.2665H39.1541C39.592 15.2665 39.9499 15.6244 39.9499 16.0623V18.0601Z" fill="white"/>
</g>
<defs>
<clipPath id="clip0_304_608">
<rect width="23.2864" height="40" fill="white" transform="translate(24 12)"/>
</clipPath>
</defs>
</svg>
