<svg width="72" height="64" viewBox="0 0 72 64" fill="none" xmlns="http://www.w3.org/2000/svg">
<rect width="71.2864" height="64" rx="5" fill="#454545"/>
<g clip-path="url(#clip0_49_29)">
<path d="M35.6782 30.0255C36.4823 30.0255 38.2903 25.3098 38.7498 24.0744C38.8156 23.8971 38.9829 23.7756 39.1719 23.7748C41.4785 23.7573 42.5407 23.9146 44.8599 25.0426C45.0888 25.1541 45.1504 25.4571 45.0197 25.6752C44.0924 27.236 40.6711 33.1413 39.3775 37.4333C38.0697 42.4787 36.1135 51.732 35.9662 51.8793C35.9337 51.9118 35.8255 52 35.6723 52C35.5533 52 35.4784 51.9692 35.3885 51.8793C35.2411 51.732 33.2849 42.4787 31.9772 37.4333C30.6836 33.1421 27.2623 27.236 26.335 25.6752C26.2051 25.4563 26.2667 25.1533 26.4948 25.0426C28.8148 23.9138 29.8769 23.7565 32.1828 23.7748C32.3717 23.7764 32.5391 23.898 32.6048 24.0744C33.0643 25.3098 34.8674 30.0255 35.6707 30.0255C35.6757 30.0255 35.6765 30.0255 35.6765 30.0255H35.6782Z" fill="white"/>
<path d="M45.1229 26.2529C45.1429 26.0989 45.3052 26.009 45.4476 26.0722C46.6829 26.6183 49.3916 28.9399 44.3363 38.3048C41.3404 43.4384 39.6364 44.3824 39.3842 44.3541C38.8339 44.2925 44.293 32.5294 45.1229 26.252V26.2529Z" fill="white"/>
<path d="M26.1635 26.2529C26.1435 26.0989 25.9812 26.009 25.8388 26.0722C24.6035 26.6183 21.8948 28.9399 26.9501 38.3048C29.946 43.4384 31.65 44.3824 31.9022 44.3541C32.4525 44.2925 26.9934 32.5294 26.1635 26.252V26.2529Z" fill="white"/>
<path d="M43.9384 13.0339C43.6071 12.8674 43.1559 12.7275 42.8279 12.6543C41.8715 12.442 39.4591 12 35.6782 12C32.3351 12 29.5548 12.4645 28.4144 12.6868C27.7867 12.8091 27.2082 13.1254 26.7911 13.6091C26.5964 13.8355 26.4573 14.0386 26.4573 14.2809V19.8407C26.4573 20.3018 26.8569 20.8063 27.4188 21.0885C27.7501 21.255 28.2013 21.3948 28.5293 21.4681C29.4857 21.6803 31.8981 22.1224 35.679 22.1224C39.0221 22.1224 41.8024 21.6579 42.9436 21.4356C43.5713 21.3132 44.1498 20.9969 44.5669 20.5133C44.7617 20.2869 44.9007 20.0837 44.9007 19.8415V14.2817C44.9007 13.8205 44.5011 13.3161 43.9392 13.0339H43.9384ZM33.1592 18.0601C33.1592 18.498 32.8013 18.8559 32.3634 18.8559H32.1786C31.7408 18.8559 31.3828 18.498 31.3828 18.0601V16.0623C31.3828 15.6244 31.7408 15.2665 32.1786 15.2665H32.3634C32.8013 15.2665 33.1592 15.6244 33.1592 16.0623V18.0601ZM39.9502 18.0601C39.9502 18.498 39.5923 18.8559 39.1544 18.8559H38.9696C38.5318 18.8559 38.1738 18.498 38.1738 18.0601V16.0623C38.1738 15.6244 38.5318 15.2665 38.9696 15.2665H39.1544C39.5923 15.2665 39.9502 15.6244 39.9502 16.0623V18.0601Z" fill="white"/>
</g>
<defs>
<clipPath id="clip0_49_29">
<rect width="23.2864" height="40" fill="white" transform="translate(24 12)"/>
</clipPath>
</defs>
</svg>
