<svg width="16" height="16" viewBox="0 0 16 16" fill="none" xmlns="http://www.w3.org/2000/svg">
<path d="M14.6629 6.2506L14.1029 8.63918C13.6229 10.702 12.6744 11.5363 10.8915 11.3649C10.6058 11.342 10.2972 11.2906 9.96578 11.2106L9.00578 10.982C6.62293 10.4163 5.88578 9.23918 6.44578 6.85061L7.00578 4.45632C7.12007 3.97061 7.25721 3.54775 7.42864 3.19918C8.09721 1.81632 9.23435 1.44489 11.1429 1.89632L12.0972 2.11918C14.4915 2.67918 15.2229 3.86203 14.6629 6.2506Z" fill="#182143" stroke="#182143" stroke-width="1.5" stroke-linecap="round" stroke-linejoin="round"/>
<path d="M8.61369 13.0221C8.2594 13.2621 7.81369 13.4621 7.27083 13.6392L6.36797 13.9364C4.0994 14.6678 2.90512 14.0564 2.16797 11.7878L1.43654 9.53067C0.705115 7.2621 1.31083 6.0621 3.5794 5.33067L4.48226 5.03353C4.71654 4.95924 4.9394 4.89638 5.15083 4.85638C4.9794 5.20496 4.84226 5.62781 4.72797 6.11353L4.16797 8.50781C3.60797 10.8964 4.34512 12.0735 6.72797 12.6392L7.68797 12.8678C8.0194 12.9478 8.32797 12.9992 8.61369 13.0221Z" fill="#182143" stroke="#182143" stroke-linecap="round" stroke-linejoin="round"/>
</svg>
