<svg width="14" height="14" viewBox="0 0 14 14" fill="none" xmlns="http://www.w3.org/2000/svg">
<path d="M12.3333 8.33366C13.0697 8.33366 13.6667 7.73671 13.6667 7.00033C13.6667 6.26395 13.0697 5.66699 12.3333 5.66699C11.597 5.66699 11 6.26395 11 7.00033C11 7.73671 11.597 8.33366 12.3333 8.33366Z" fill="currentColor"/>
<path d="M12.3333 3.00016C13.0697 3.00016 13.6667 2.40321 13.6667 1.66683C13.6667 0.93045 13.0697 0.333496 12.3333 0.333496C11.597 0.333496 11 0.93045 11 1.66683C11 2.40321 11.597 3.00016 12.3333 3.00016Z" fill="currentColor"/>
<path d="M12.3333 13.6667C13.0697 13.6667 13.6667 13.0697 13.6667 12.3333C13.6667 11.597 13.0697 11 12.3333 11C11.597 11 11 11.597 11 12.3333C11 13.0697 11.597 13.6667 12.3333 13.6667Z" fill="currentColor"/>
<path d="M1.66671 8.33366C2.40309 8.33366 3.00004 7.73671 3.00004 7.00033C3.00004 6.26395 2.40309 5.66699 1.66671 5.66699C0.930328 5.66699 0.333374 6.26395 0.333374 7.00033C0.333374 7.73671 0.930328 8.33366 1.66671 8.33366Z" fill="currentColor"/>
<path d="M3 7H11" stroke="currentColor" stroke-width="1.5" stroke-linecap="round" stroke-linejoin="round"/>
<path d="M11 1.66699H8.33337C7.00004 1.66699 6.33337 2.33366 6.33337 3.66699V10.3337C6.33337 11.667 7.00004 12.3337 8.33337 12.3337H11" stroke="currentColor" stroke-width="1.5" stroke-linecap="round" stroke-linejoin="round"/>
</svg>
