<svg width="21" height="20" viewBox="0 0 21 20" fill="currentColor" xmlns="http://www.w3.org/2000/svg">
<path fill-rule="evenodd" clip-rule="evenodd" d="M17.3445 7.58333L13.2385 3.47733V5C13.2385 6.20845 13.4496 6.77542 13.748 7.07384C14.0464 7.37225 14.6134 7.58333 15.8219 7.58333H17.3445ZM8.32186 0.916667C6.16455 0.916667 4.45933 1.34353 3.31236 2.4905C2.16539 3.63747 1.73853 5.34269 1.73853 7.5V12.5C1.73853 14.6573 2.16539 16.3625 3.31236 17.5095C4.45933 18.6565 6.16455 19.0833 8.32186 19.0833H13.3219C15.4792 19.0833 17.1844 18.6565 18.3314 17.5095C19.4783 16.3625 19.9052 14.6573 19.9052 12.5V8.33333C19.9052 8.13442 19.8262 7.94366 19.6855 7.803L13.0189 1.13634C12.8782 0.995685 12.6874 0.916667 12.4885 0.916667H8.32186ZM9.98853 11.4583C10.1469 11.4583 10.3052 11.4 10.4302 11.275L10.4219 11.2667C10.6635 11.025 10.6635 10.625 10.4219 10.3833L8.75519 8.71667C8.75519 8.70833 8.73853 8.70833 8.73853 8.70833C8.68853 8.65833 8.62186 8.61667 8.55519 8.58333H8.54686C8.48019 8.55833 8.41353 8.54167 8.34686 8.54167H8.28019C8.23019 8.55 8.18019 8.55833 8.13019 8.575C8.11769 8.57917 8.10728 8.58333 8.09686 8.5875C8.08644 8.59167 8.07603 8.59583 8.06353 8.6C7.99686 8.63333 7.93019 8.66667 7.88019 8.725L6.21353 10.3917C5.97186 10.6333 5.97186 11.0333 6.21353 11.275C6.45519 11.5167 6.85519 11.5167 7.09686 11.275L7.69686 10.675V14.1667C7.69686 14.5083 7.98019 14.7917 8.32186 14.7917C8.66353 14.7917 8.94686 14.5083 8.94686 14.1667V10.675L9.54686 11.275C9.67186 11.4 9.83019 11.4583 9.98853 11.4583Z" fill="currentColor"/>
</svg>
