<svg width="12" height="16" viewBox="0 0 12 16" fill="none" xmlns="http://www.w3.org/2000/svg">
<path d="M2.33337 14.6667V10" stroke="currentColor" stroke-width="1.5" stroke-miterlimit="10" stroke-linecap="round" stroke-linejoin="round"/>
<path d="M2.33337 3.3335V1.3335" stroke="currentColor" stroke-width="1.5" stroke-miterlimit="10" stroke-linecap="round" stroke-linejoin="round"/>
<path d="M9.66675 14.667V12.667" stroke="currentColor" stroke-width="1.5" stroke-miterlimit="10" stroke-linecap="round" stroke-linejoin="round"/>
<path d="M9.66675 6.00016V1.3335" stroke="currentColor" stroke-width="1.5" stroke-miterlimit="10" stroke-linecap="round" stroke-linejoin="round"/>
<path d="M4.33337 4.66683V8.66683C4.33337 9.40016 4.00004 10.0002 3.00004 10.0002H1.66671C0.666707 10.0002 0.333374 9.40016 0.333374 8.66683V4.66683C0.333374 3.9335 0.666707 3.3335 1.66671 3.3335H3.00004C4.00004 3.3335 4.33337 3.9335 4.33337 4.66683Z" fill="currentColor"/>
<path d="M11.6667 7.33333V11.3333C11.6667 12.0667 11.3334 12.6667 10.3334 12.6667H9.00008C8.00008 12.6667 7.66675 12.0667 7.66675 11.3333V7.33333C7.66675 6.6 8.00008 6 9.00008 6H10.3334C11.3334 6 11.6667 6.6 11.6667 7.33333Z" fill="currentColor"/>
</svg>
