<svg width="16" height="16" viewBox="0 0 16 16" fill="none" xmlns="http://www.w3.org/2000/svg">
<path d="M10.7934 1.33325H5.20671C2.78004 1.33325 1.33337 2.77992 1.33337 5.20659V10.7866C1.33337 13.2199 2.78004 14.6666 5.20671 14.6666H10.7867C13.2134 14.6666 14.66 13.2199 14.66 10.7933V5.20659C14.6667 2.77992 13.22 1.33325 10.7934 1.33325ZM5.11337 3.66659C5.11337 3.39325 5.34004 3.16659 5.61337 3.16659C5.88671 3.16659 6.11337 3.39325 6.11337 3.66659V6.26659C6.11337 6.53992 5.88671 6.76659 5.61337 6.76659C5.34004 6.76659 5.11337 6.53992 5.11337 6.26659V3.66659ZM6.46124 10.8994C6.26441 11.0034 6.11337 11.1931 6.11337 11.4157V12.3333C6.11337 12.6066 5.88671 12.8333 5.61337 12.8333C5.34004 12.8333 5.11337 12.6066 5.11337 12.3333V11.4157C5.11337 11.1931 4.96229 11.0034 4.76559 10.8992C4.19035 10.5944 3.80004 9.99421 3.80004 9.29992C3.80004 8.29992 4.61337 7.47992 5.61337 7.47992C6.61337 7.47992 7.43337 8.29325 7.43337 9.29992C7.43337 9.99436 7.03819 10.5947 6.46124 10.8994ZM10.8867 12.3333C10.8867 12.6066 10.66 12.8333 10.3867 12.8333C10.1134 12.8333 9.88671 12.6066 9.88671 12.3333V9.73325C9.88671 9.45992 10.1134 9.23325 10.3867 9.23325C10.66 9.23325 10.8867 9.45992 10.8867 9.73325V12.3333ZM10.3867 8.51325C9.38671 8.51325 8.56671 7.69992 8.56671 6.69325C8.56671 5.99881 8.96189 5.39846 9.53884 5.09376C9.73567 4.98981 9.88671 4.80006 9.88671 4.57746V3.66659C9.88671 3.39325 10.1134 3.16659 10.3867 3.16659C10.66 3.16659 10.8867 3.39325 10.8867 3.66659V4.58413C10.8867 4.80673 11.0378 4.99641 11.2345 5.10062C11.8097 5.40539 12.2 6.00563 12.2 6.69992C12.2 7.69992 11.3867 8.51325 10.3867 8.51325Z" fill="currentColor"/>
</svg>
