<svg width="14" height="14" viewBox="0 0 14 14" fill="currentColor" xmlns="http://www.w3.org/2000/svg">
<path d="M4.99992 0.333252C3.25325 0.333252 1.83325 1.75325 1.83325 3.49992C1.83325 5.21325 3.17325 6.59992 4.91992 6.65992C4.97325 6.65325 5.02659 6.65325 5.06659 6.65992C5.07992 6.65992 5.08659 6.65992 5.09992 6.65992C5.10659 6.65992 5.10659 6.65992 5.11325 6.65992C6.81992 6.59992 8.15992 5.21325 8.16659 3.49992C8.16659 1.75325 6.74659 0.333252 4.99992 0.333252Z" fill="currentColor"/>
<path d="M8.38664 8.43317C6.52664 7.19317 3.49331 7.19317 1.61997 8.43317C0.773307 8.99984 0.306641 9.76651 0.306641 10.5865C0.306641 11.4065 0.773307 12.1665 1.61331 12.7265C2.54664 13.3532 3.77331 13.6665 4.99997 13.6665C6.22664 13.6665 7.45331 13.3532 8.38664 12.7265C9.22664 12.1598 9.69331 11.3998 9.69331 10.5732C9.68664 9.75317 9.22664 8.99317 8.38664 8.43317Z" fill="currentColor"/>
<path d="M12.3266 3.89332C12.4333 5.18665 11.5133 6.31998 10.24 6.47332C10.2333 6.47332 10.2333 6.47332 10.2266 6.47332H10.2066C10.1666 6.47332 10.1266 6.47332 10.0933 6.48665C9.44662 6.51998 8.85328 6.31332 8.40662 5.93332C9.09328 5.31998 9.48662 4.39998 9.40662 3.39998C9.35995 2.85998 9.17328 2.36665 8.89328 1.94665C9.14662 1.81999 9.43995 1.73999 9.73995 1.71332C11.0466 1.59999 12.2133 2.57332 12.3266 3.89332Z" fill="currentColor"/>
<path d="M13.66 10.0599C13.6067 10.7066 13.1933 11.2666 12.5 11.6466C11.8333 12.0133 10.9933 12.1866 10.16 12.1666C10.64 11.7333 10.92 11.1933 10.9733 10.6199C11.04 9.79327 10.6467 8.99994 9.85999 8.36661C9.41333 8.01327 8.89333 7.73327 8.32666 7.52661C9.79999 7.09994 11.6533 7.38661 12.7933 8.30661C13.4067 8.79994 13.72 9.41994 13.66 10.0599Z" fill="currentColor"/>
</svg>
