<svg width="24" height="19" viewBox="0 0 24 19" fill="currentColor" xmlns="http://www.w3.org/2000/svg">
<path fill-rule="evenodd" clip-rule="evenodd" d="M9.75 2H20C21.3807 2 22.5 3.11929 22.5 4.5V14.5C22.5 15.8807 21.3807 17 20 17H9.75V2ZM8.25 0.5H9.75H20C22.2091 0.5 24 2.29086 24 4.5V14.5C24 16.7091 22.2091 18.5 20 18.5H9.75H8.25H4C1.79086 18.5 0 16.7091 0 14.5V4.5C0 2.29086 1.79086 0.5 4 0.5H8.25ZM8.25 17H4C2.61929 17 1.5 15.8807 1.5 14.5V4.5C1.5 3.11929 2.61929 2 4 2H8.25V17Z" fill="currentColor"/>
</svg>
