<svg width="21" height="20" viewBox="0 0 21 20" fill="none" xmlns="http://www.w3.org/2000/svg">
<g clip-path="url(#clip0_323_173)">
<path fill-rule="evenodd" clip-rule="evenodd" d="M1.2981 9.16208V10.8383C1.2981 11.8287 2.10762 12.6478 3.10762 12.6478C4.83143 12.6478 5.53619 13.8668 4.66952 15.3621C4.17429 16.2192 4.46952 17.3335 5.33619 17.8287L6.98381 18.7716C7.73619 19.2192 8.70762 18.9526 9.15524 18.2002L9.26 18.0192C10.1267 16.524 11.5362 16.524 12.3933 18.0192L12.4981 18.2002C12.9457 18.9526 13.9171 19.2192 14.6695 18.7716L16.3171 17.8287C17.1838 17.3335 17.479 16.2287 16.9838 15.3621C16.1171 13.8668 16.8219 12.6478 18.5457 12.6478C19.5457 12.6478 20.3552 11.8287 20.3552 10.8383V9.16208C20.3552 8.16208 19.5362 7.35255 18.5457 7.35255C16.8219 7.35255 16.1171 6.13351 16.9838 4.63827C17.479 3.78112 17.1838 2.66684 16.3171 2.1716L14.6695 1.22874C13.9171 0.781124 12.9457 1.04779 12.4981 1.80017L12.3933 1.98112C11.5267 3.47636 10.1171 3.47636 9.26 1.98112L9.15524 1.80017C8.70762 1.04779 7.73619 0.781124 6.98381 1.22874L5.33619 2.1716C4.46952 2.66684 4.17429 3.78112 4.66952 4.63827C5.53619 6.13351 4.83143 7.35255 3.10762 7.35255C2.10762 7.35255 1.2981 8.1716 1.2981 9.16208ZM8.7147 10C8.7147 8.83626 9.6581 7.89286 10.8218 7.89286C11.9856 7.89286 12.929 8.83626 12.929 10C12.929 11.1637 11.9856 12.1071 10.8218 12.1071C9.6581 12.1071 8.7147 11.1637 8.7147 10ZM10.8218 6.39286C8.82968 6.39286 7.2147 8.00783 7.2147 10C7.2147 11.9922 8.82968 13.6071 10.8218 13.6071C12.814 13.6071 14.429 11.9922 14.429 10C14.429 8.00783 12.814 6.39286 10.8218 6.39286Z" fill="#182143"/>
</g>
<defs>
<clipPath id="clip0_323_173">
<rect width="20" height="20" fill="white" transform="translate(0.821899)"/>
</clipPath>
</defs>
</svg>
