<svg width="24" height="20" viewBox="0 0 24 20" fill="none" xmlns="http://www.w3.org/2000/svg">
<g clip-path="url(#clip0_323_152)">
<path fill-rule="evenodd" clip-rule="evenodd" d="M7.01541 9.25929C6.8939 9.09256 6.72972 8.93649 6.52287 8.79859C5.3922 8.04481 3.52198 8.04481 2.3842 8.79859C1.38154 9.46704 1.38154 10.5621 2.3842 11.2306C3.52198 11.9915 5.38509 11.9915 6.52287 11.2306C6.72285 11.0973 6.88294 10.947 7.00315 10.7865C6.9013 10.5577 6.8447 10.3038 6.8447 10.036C6.8447 9.75799 6.90582 9.49488 7.01541 9.25929Z" fill="#182143"/>
<path d="M7.01541 9.25929L7.69543 9.57562C7.81048 9.3283 7.78218 9.03802 7.62153 8.81758L7.01541 9.25929ZM6.52287 8.79859L6.10684 9.42263V9.42263L6.52287 8.79859ZM2.3842 8.79859L1.96998 8.17335L1.96818 8.17455L2.3842 8.79859ZM2.3842 11.2306L2.80113 10.6072L2.80023 10.6066L2.3842 11.2306ZM6.52287 11.2306L6.10684 10.6066L6.10594 10.6072L6.52287 11.2306ZM7.00315 10.7865L7.60344 11.2361C7.7664 11.0185 7.79888 10.7298 7.68833 10.4815L7.00315 10.7865ZM7.62153 8.81758C7.44183 8.57098 7.21026 8.35546 6.93889 8.17455L6.10684 9.42263C6.24919 9.51753 6.34598 9.61414 6.40928 9.701L7.62153 8.81758ZM6.93889 8.17455C6.2236 7.69769 5.31957 7.48326 4.4562 7.48326C3.59263 7.48326 2.68785 7.69777 1.96998 8.17335L2.79842 9.42383C3.21833 9.14564 3.81756 8.98326 4.4562 8.98326C5.09506 8.98326 5.69147 9.14571 6.10684 9.42263L6.93889 8.17455ZM1.96818 8.17455C1.31046 8.61303 0.882202 9.26603 0.882202 10.0146C0.882202 10.7631 1.31046 11.4161 1.96818 11.8546L2.80023 10.6066C2.45528 10.3766 2.3822 10.1478 2.3822 10.0146C2.3822 9.88137 2.45528 9.65259 2.80023 9.42263L1.96818 8.17455ZM1.96728 11.854C2.68521 12.3341 3.58908 12.5513 4.45354 12.5513C5.31799 12.5513 6.22186 12.3341 6.93979 11.854L6.10594 10.6072C5.6861 10.8879 5.08953 11.0513 4.45354 11.0513C3.81754 11.0513 3.22097 10.8879 2.80113 10.6072L1.96728 11.854ZM6.93889 11.8546C7.20125 11.6797 7.42638 11.4725 7.60344 11.2361L6.40286 10.3369C6.33951 10.4215 6.24444 10.5148 6.10684 10.6066L6.93889 11.8546ZM7.68833 10.4815C7.62859 10.3473 7.5947 10.1971 7.5947 10.036H6.0947C6.0947 10.4104 6.17402 10.7681 6.31797 11.0915L7.68833 10.4815ZM7.5947 10.036C7.5947 9.86897 7.63122 9.71367 7.69543 9.57562L6.33538 8.94296C6.18042 9.27609 6.0947 9.64702 6.0947 10.036H7.5947Z" fill="#182143"/>
<path d="M4.4536 6.5585C4.41093 6.55139 4.36115 6.55139 4.31849 6.5585C3.33715 6.52294 2.55493 5.71938 2.55493 4.72383C2.55493 3.70694 3.37271 2.88916 4.3896 2.88916C5.40649 2.88916 6.22426 3.71405 6.22426 4.72383C6.21715 5.71938 5.43493 6.53005 4.4536 6.5585Z" fill="#182143" stroke="#182143" stroke-width="1.5" stroke-linecap="round" stroke-linejoin="round"/>
<path fill-rule="evenodd" clip-rule="evenodd" d="M16.6674 10.7105C16.792 10.8996 16.9699 11.0764 17.2012 11.2306C18.3389 11.9915 20.2021 11.9915 21.3398 11.2306C22.3425 10.5621 22.3425 9.46704 21.3398 8.79859C20.2092 8.04481 18.3389 8.04481 17.2012 8.79859C16.9641 8.95665 16.783 9.13857 16.6581 9.33306C16.7481 9.54978 16.7977 9.78727 16.7977 10.036C16.796 10.2741 16.7499 10.5017 16.6674 10.7105Z" fill="#182143"/>
<path d="M16.6674 10.7105L15.9699 10.4348C15.8801 10.6621 15.9066 10.919 16.0411 11.1231L16.6674 10.7105ZM17.2012 11.2306L17.6181 10.6072L17.6172 10.6066L17.2012 11.2306ZM21.3398 11.2306L20.9238 10.6066L20.9229 10.6072L21.3398 11.2306ZM21.3398 8.79859L21.7559 8.17455V8.17455L21.3398 8.79859ZM17.2012 8.79859L16.7869 8.17335L16.7851 8.17455L17.2012 8.79859ZM16.6581 9.33306L16.0271 8.92764C15.8942 9.13456 15.8711 9.3935 15.9654 9.62065L16.6581 9.33306ZM16.7977 10.036L17.5477 10.0413V10.036H16.7977ZM16.0411 11.1231C16.2281 11.4068 16.4819 11.6524 16.7851 11.8546L17.6172 10.6066C17.458 10.5004 17.3559 10.3923 17.2937 10.2978L16.0411 11.1231ZM16.7842 11.854C17.5022 12.3341 18.406 12.5513 19.2705 12.5513C20.135 12.5513 21.0388 12.3341 21.7568 11.854L20.9229 10.6072C20.5031 10.8879 19.9065 11.0513 19.2705 11.0513C18.6345 11.0513 18.0379 10.8879 17.6181 10.6072L16.7842 11.854ZM21.7559 11.8546C22.4136 11.4161 22.8418 10.7631 22.8418 10.0146C22.8418 9.26603 22.4136 8.61303 21.7559 8.17455L20.9238 9.42263C21.2688 9.65259 21.3418 9.88137 21.3418 10.0146C21.3418 10.1478 21.2688 10.3766 20.9238 10.6066L21.7559 11.8546ZM21.7559 8.17455C21.0406 7.69769 20.1365 7.48326 19.2732 7.48326C18.4096 7.48326 17.5048 7.69777 16.7869 8.17335L17.6154 9.42383C18.0353 9.14564 18.6345 8.98326 19.2732 8.98326C19.912 8.98326 20.5084 9.14571 20.9238 9.42263L21.7559 8.17455ZM16.7851 8.17455C16.4742 8.38182 16.2153 8.63478 16.0271 8.92764L17.2891 9.73848C17.3508 9.64236 17.4539 9.53148 17.6172 9.42263L16.7851 8.17455ZM15.9654 9.62065C16.0182 9.74788 16.0477 9.88777 16.0477 10.036H17.5477C17.5477 9.68677 17.4779 9.35167 17.3508 9.04548L15.9654 9.62065ZM16.0477 10.0306C16.0467 10.1749 16.0189 10.3109 15.9699 10.4348L17.3649 10.9861C17.481 10.6924 17.5453 10.3733 17.5476 10.0413L16.0477 10.0306Z" fill="#182143"/>
<path d="M19.2706 6.5585C19.2279 6.55139 19.1782 6.55139 19.1355 6.5585C18.1542 6.52294 17.3719 5.71938 17.3719 4.72383C17.3719 3.70694 18.1897 2.88916 19.2066 2.88916C20.2235 2.88916 21.0413 3.71405 21.0413 4.72383C21.0342 5.71938 20.2519 6.53005 19.2706 6.5585Z" fill="#182143" stroke="#182143" stroke-width="1.5" stroke-linecap="round" stroke-linejoin="round"/>
<path d="M11.8369 11.8705C11.7942 11.8634 11.7445 11.8634 11.7018 11.8705C10.7205 11.835 9.93823 11.0314 9.93823 10.0358C9.93823 9.01895 10.756 8.20117 11.7729 8.20117C12.7898 8.20117 13.6076 9.02606 13.6076 10.0358C13.6005 11.0314 12.8182 11.8421 11.8369 11.8705Z" fill="#182143" stroke="#182143" stroke-width="1.5" stroke-linecap="round" stroke-linejoin="round"/>
<path d="M9.7675 14.1105C8.76484 14.7789 8.76484 15.8741 9.7675 16.5425C10.9053 17.3034 12.7684 17.3034 13.9062 16.5425C14.9088 15.8741 14.9088 14.7789 13.9062 14.1105C12.7755 13.3567 10.9053 13.3567 9.7675 14.1105Z" fill="#182143" stroke="#182143" stroke-width="1.5" stroke-linecap="round" stroke-linejoin="round"/>
</g>
<defs>
<clipPath id="clip0_323_152">
<rect width="23" height="20" fill="white" transform="translate(0.321899)"/>
</clipPath>
</defs>
</svg>
