<svg width="50" height="50" viewBox="0 0 50 50" fill="none" xmlns="http://www.w3.org/2000/svg">
<circle cx="25" cy="25" r="25" fill="#AAAAAA"/>
<path fill-rule="evenodd" clip-rule="evenodd" d="M21.6924 21.2307C21.4375 21.2307 21.2308 21.4373 21.2308 21.6922C21.2308 21.9471 21.4375 22.1538 21.6924 22.1538C21.9473 22.1538 22.1539 21.9471 22.1539 21.6922C22.1539 21.4373 21.9473 21.2307 21.6924 21.2307ZM19.3847 21.6922C19.3847 20.4177 20.4179 19.3845 21.6924 19.3845C22.9669 19.3845 24.0001 20.4177 24.0001 21.6922C24.0001 22.9667 22.9669 23.9999 21.6924 23.9999C20.4179 23.9999 19.3847 22.9667 19.3847 21.6922Z" fill="#454545"/>
<path fill-rule="evenodd" clip-rule="evenodd" d="M31.8462 34.6154C33.3756 34.6154 34.6154 33.3756 34.6154 31.8462V28.1539C34.6154 28.1533 34.6154 27.6929 34.6154 27.6923V18.9231C34.6154 17.3937 33.3756 16.1539 31.8462 16.1539H18.9231C17.3937 16.1539 16.1539 17.3937 16.1539 18.9231V31.8462C16.1539 33.3752 16.9327 34.6148 18.4616 34.6154M18 18.9231C18 18.4133 18.4133 18 18.9231 18H31.8462C32.356 18 32.7693 18.4133 32.7693 18.9231V25.8462L29.5385 22.6154C29.178 22.2549 28.5144 22.2549 28.1539 22.6154L18.4616 32.3077C18.1115 32.1765 18 32.242 18 31.8462V18.9231ZM32.7693 28.1539V31.8462C32.7693 32.356 32.356 32.7693 31.8462 32.7693H20.7693L29.0769 24.4616L32.7693 28.1539Z" fill="#454545"/>
</svg>
