<svg width="36" height="32" viewBox="0 0 36 32" fill="none" xmlns="http://www.w3.org/2000/svg">
<rect width="35.6437" height="32" rx="5" fill="#182143"/>
<path d="M17.8394 15.0127C18.2415 15.0127 19.1455 12.6548 19.3753 12.0371C19.4081 11.9485 19.4918 11.8877 19.5863 11.8873C20.7396 11.8786 21.2707 11.9572 22.4303 12.5212C22.5447 12.577 22.5755 12.7285 22.5102 12.8375C22.0465 13.6179 20.3359 16.5706 19.6891 18.7166C19.0352 21.2393 18.0571 25.8659 17.9834 25.9396C17.9672 25.9558 17.9131 25.9999 17.8365 25.9999C17.777 25.9999 17.7395 25.9845 17.6946 25.9396C17.6209 25.8659 16.6428 21.2393 15.9889 18.7166C15.3421 16.571 13.6315 13.6179 13.1678 12.8375C13.1029 12.7281 13.1337 12.5766 13.2477 12.5212C14.4077 11.9568 14.9388 11.8782 16.0917 11.8873C16.1862 11.8881 16.2699 11.9489 16.3028 12.0371C16.5325 12.6548 17.434 15.0127 17.8357 15.0127C17.8382 15.0127 17.8386 15.0127 17.8386 15.0127H17.8394Z" fill="#DCDCDC"/>
<path d="M22.5617 13.1265C22.5717 13.0495 22.6528 13.0046 22.724 13.0362C23.3417 13.3092 24.696 14.4701 22.1684 19.1525C20.6704 21.7193 19.8184 22.1913 19.6923 22.1771C19.4172 22.1463 22.1467 16.2648 22.5617 13.1261V13.1265Z" fill="#DCDCDC"/>
<path d="M13.082 13.1265C13.072 13.0495 12.9908 13.0046 12.9197 13.0362C12.302 13.3092 10.9476 14.4701 13.4753 19.1525C14.9733 21.7193 15.8253 22.1913 15.9514 22.1771C16.2265 22.1463 13.4969 16.2648 13.082 13.1261V13.1265Z" fill="#DCDCDC"/>
<path d="M21.9693 6.51694C21.8036 6.4337 21.5781 6.36377 21.4141 6.32715C20.9358 6.22101 19.7296 6 17.8392 6C16.1677 6 14.7775 6.23225 14.2073 6.34338C13.8935 6.40456 13.6042 6.56272 13.3957 6.80455C13.2983 6.91776 13.2288 7.01931 13.2288 7.14043V9.92034C13.2288 10.1509 13.4285 10.4031 13.7095 10.5442C13.8751 10.6275 14.1007 10.6974 14.2647 10.734C14.743 10.8402 15.9491 11.0612 17.8396 11.0612C19.5111 11.0612 20.9013 10.8289 21.4719 10.7178C21.7857 10.6566 22.075 10.4985 22.2835 10.2566C22.3809 10.1434 22.4504 10.0419 22.4504 9.92076V7.14085C22.4504 6.91026 22.2507 6.65804 21.9697 6.51694H21.9693ZM16.5797 9.03005C16.5797 9.24898 16.4007 9.42796 16.1818 9.42796H16.0894C15.8705 9.42796 15.6915 9.24898 15.6915 9.03005V8.03113C15.6915 7.8122 15.8705 7.63323 16.0894 7.63323H16.1818C16.4007 7.63323 16.5797 7.8122 16.5797 8.03113V9.03005ZM19.9752 9.03005C19.9752 9.24898 19.7962 9.42796 19.5773 9.42796H19.4849C19.266 9.42796 19.087 9.24898 19.087 9.03005V8.03113C19.087 7.8122 19.266 7.63323 19.4849 7.63323H19.5773C19.7962 7.63323 19.9752 7.8122 19.9752 8.03113V9.03005Z" fill="#DCDCDC"/>
</svg>
