<svg width="21" height="22" viewBox="0 0 21 22" fill="none" xmlns="http://www.w3.org/2000/svg">
<path d="M10.5019 2.47632C5.76569 2.47632 1.90625 6.33576 1.90625 11.072C1.90625 15.8082 5.76569 19.6676 10.5019 19.6676C15.2381 19.6676 19.0975 15.8082 19.0975 11.072C19.0975 6.33576 15.2381 2.47632 10.5019 2.47632ZM14.6106 9.09496L9.73688 13.9687C9.61654 14.089 9.45322 14.1578 9.28131 14.1578C9.1094 14.1578 8.94608 14.089 8.82574 13.9687L6.39317 11.5361C6.1439 11.2869 6.1439 10.8743 6.39317 10.625C6.64245 10.3757 7.05504 10.3757 7.30431 10.625L9.28131 12.602L13.6995 8.18383C13.9487 7.93455 14.3613 7.93455 14.6106 8.18383C14.8599 8.4331 14.8599 8.83709 14.6106 9.09496Z" fill="#7B7B7B"/>
</svg>
